<?xml version="1.0" standalone="no"?>
<!DOCTYPE svg PUBLIC "-//W3C//DTD SVG 1.1//EN"
  "http://www.w3.org/Graphics/SVG/1.1/DTD/svg11.dtd">
<svg version="1.1" xmlns="http://www.w3.org/2000/svg" xmlns:xlink="http://www.w3.org/1999/xlink" width="1920" height="1080" viewBox="-1040.888888888889 -32 1889.7777777777778 1063" id="ccdiagram"><filter id="grayscale"><feColorMatrix type="matrix" values="0.3333 0.3333 0.3333 0 0 0.3333 0.3333 0.3333 0 0 0.3333 0.3333 0.3333 0 0 0 0 0 1 0"></feColorMatrix></filter><defs><style type="text/css">@import url('https://fonts.googleapis.com/css?family=Open+Sans:400,700|Inconsolata:400');</style></defs><g><g pointer-events="auto"></g><g pointer-events="auto"></g><g></g><g pointer-events="auto"></g><g></g><g pointer-events="auto"></g><g pointer-events="none"></g><g pointer-events="auto"><g><g cursor="cell"><line x1="-464" y1="398" x2="-218" y2="540" stroke="red" stroke-width="8" opacity="0"></line><line x1="-464" y1="398" x2="-218" y2="540" stroke="#000000" stroke-width="2" stroke-linecap="round"></line><polygon points="-208 546, -217 531, -220 539, -234 540, -208 546" stroke-linejoin="round" fill="#000000" stroke="#000000" stroke-width="1"></polygon></g></g><g><g cursor="cell"><line x1="-208" y1="546" x2="22" y2="413" stroke="red" stroke-width="8" opacity="0"></line><line x1="-208" y1="546" x2="22" y2="413" stroke="#000000" stroke-width="2" stroke-linecap="round"></line><polygon points="32 407, 6 412, 20 414, 23 422, 32 407" stroke-linejoin="round" fill="#000000" stroke="#000000" stroke-width="1"></polygon></g></g><g><g cursor="cell"><line x1="32" y1="407" x2="246" y2="283" stroke="red" stroke-width="8" opacity="0"></line><line x1="32" y1="407" x2="246" y2="283" stroke="#000000" stroke-width="2" stroke-linecap="round"></line><polygon points="256 278, 230 283, 244 285, 247 292, 256 278" stroke-linejoin="round" fill="#000000" stroke="#000000" stroke-width="1"></polygon></g></g><g><g cursor="cell"><line x1="-208" y1="546" x2="-48" y2="638" stroke="red" stroke-width="8" opacity="0"></line><line x1="-208" y1="546" x2="-48" y2="638" stroke="#000000" stroke-width="2" stroke-linecap="round"></line></g></g><g><g cursor="cell"><line x1="-48" y1="638" x2="182" y2="505" stroke="red" stroke-width="8" opacity="0"></line><line x1="-48" y1="638" x2="182" y2="505" stroke="#000000" stroke-width="2" stroke-linecap="round"></line><polygon points="192 500, 166 505, 180 507, 183 514, 192 500" stroke-linejoin="round" fill="#000000" stroke="#000000" stroke-width="1"></polygon></g></g><g><g cursor="cell"><line x1="-48" y1="638" x2="96" y2="722" stroke="red" stroke-width="8" opacity="0"></line><line x1="-48" y1="638" x2="96" y2="722" stroke="#000000" stroke-width="2" stroke-linecap="round"></line></g></g><g><g cursor="cell"><line x1="96" y1="722" x2="326" y2="588" stroke="red" stroke-width="8" opacity="0"></line><line x1="96" y1="722" x2="326" y2="588" stroke="#000000" stroke-width="2" stroke-linecap="round"></line><polygon points="336 583, 310 588, 324 590, 327 598, 336 583" stroke-linejoin="round" fill="#000000" stroke="#000000" stroke-width="1"></polygon></g></g><g><g cursor="cell"><line x1="-512" y1="722" x2="-218" y2="551" stroke="red" stroke-width="8" opacity="0"></line><line x1="-512" y1="722" x2="-218" y2="551" stroke="#000000" stroke-width="2" stroke-linecap="round"></line><polygon points="-208 546, -234 551, -220 553, -217 561, -208 546" stroke-linejoin="round" fill="#000000" stroke="#000000" stroke-width="1"></polygon></g></g></g><g pointer-events="auto"></g><g pointer-events="auto"></g><g pointer-events="auto"><g opacity="1"><g id="df982fdb-5e6d-4bac-bbbe-a2415bddf71e" transform="translate(0 0)"><svg x="-208" y="546" overflow="visible"><g transform="scale(1.25) "><circle cx="0" cy="0" fill="transparent" r="40"></circle><svg width="100" height="100" x="-50" y="-50"><svg id="Layer_1" data-name="Layer 1" xmlns="http://www.w3.org/2000/svg" width="100" height="100" viewBox="0 0 100 100"><g><circle cx="50" cy="51.25" r="30.43" fill="#9d5025"></circle><path fill="#9d5025" d="M19.57 48.75h60.86v2.5H19.57z"></path><circle cx="50" cy="48.75" r="30.43" fill="#f58536"></circle><path fill="#fff" d="M69.8 63.7l-2.36-6.19-5.28 2.02-7.55-19.77-2.1-5.47-.98-2.58-1.55-4.04h-10v6.62h5.44l1.89 4.94-15.74 28.02h7.6l11.22-19.98 7.95 20.81 1.89-.72 4.3-1.64 5.27-2.02z"></path></g></svg></svg></g></svg></g></g><g opacity="1"><g id="d39427af-af19-4470-af53-befd8d154c08" transform="translate(0 0)"><svg x="-464" y="398" overflow="visible"><g transform="scale(1.2074767078498865) matrix(0.707 0.409 -0.707 0.409 0 0)"><circle cx="0" cy="0" fill="transparent" r="37.5"></circle><svg width="75" height="75" x="-37.5" y="-37.5" style=""><svg xmlns="http://www.w3.org/2000/svg" viewBox="0 0 75 75"><g id="Working"><path id="Pink_Light_BG" data-name="Pink Light BG" fill="#cc2264" d="M0 0h75v75H0z"></path><g id="Product_Icon" data-name="Product Icon" fill="#fff"><path d="M54.58 50.92v.53a2.33 2.33 0 0 1 0-.53zM41.45 31l-.1.19a.72.72 0 0 0 .09-.2z"></path><path d="M32.78 27.53c-.89 0-8.75-.07-8.75 2.9a1.42 1.42 0 0 0 .1.55 2 2 0 0 0 .1.21l5.44 12v6.21c0 .63.26 1 .81 1h.26a8.76 8.76 0 0 0 3.42-1.77l.67-.47a1 1 0 0 0 .47-.84v-4.1l6.05-12a.72.72 0 0 0 .09-.2 1.42 1.42 0 0 0 .1-.55c0-3.01-7.86-2.94-8.76-2.94zm0 1.84c3.53 0 5.8.62 6.56 1.06-.76.44-3 1.06-6.56 1.06s-5.79-.62-6.55-1.06c.77-.43 3.02-1.06 6.55-1.06zm.73 13V46.93l-.39.24c-.57.33-1.07.56-1.64.86V43a1.14 1.14 0 0 0-.08-.4l-4.26-9.74a25.91 25.91 0 0 0 5.64.62 26.37 26.37 0 0 0 5.48-.58z"></path><path d="M51 55.17a22.8 22.8 0 0 1-13.46 4.33c-10.88 0-20.16-7.07-22.34-17.5a4.51 4.51 0 0 0 4.18-3.49h5.1v-1.89H19.4A4.49 4.49 0 0 0 15.22 33a23 23 0 0 1 35.4-13.42L51.76 18a25 25 0 0 0-38.68 15.44 4.48 4.48 0 0 0 0 8.13A25 25 0 0 0 37.54 61.5a24.77 24.77 0 0 0 14.58-4.71zM12.5 37.5a2.5 2.5 0 0 1 2.2-2.5h.3a2.5 2.5 0 1 1-2.49 2.5zM14.86 35h-.15z"></path><path d="M60 42a4.5 4.5 0 1 0-4.4-5.43h-5.2V24.2h2.7a4.5 4.5 0 1 0 .08-1.61l-3.68-.05a.83.83 0 0 0-1 .88v13.12h-7.69v1.85h7.69v13.08a1 1 0 0 0 1 1h3.14a4.5 4.5 0 1 0 0-1.77h-2.18l-.05-12.32h5.19A4.51 4.51 0 0 0 60 42zm0-7a2.5 2.5 0 1 1-2.5 2.5A2.5 2.5 0 0 1 60 35zm-2.5-13.91a2.49 2.49 0 1 1-2.5 2.47 2.49 2.49 0 0 1 2.51-2.49zM57 49a2.5 2.5 0 1 1-2.47 2.81v-.3a2.33 2.33 0 0 1 .06-.53A2.51 2.51 0 0 1 57 49z"></path></g></g></svg></svg></g></svg></g></g><g opacity="1"><g id="14fd44f5-6773-4a85-a798-2a0ce342ac30" transform="translate(0 0)"><svg x="32" y="407" overflow="visible"><g transform="scale(1.2074767078498865) matrix(0.707 0.409 -0.707 0.409 0 0)"><circle cx="0" cy="0" fill="transparent" r="37.5"></circle><svg width="75" height="75" x="-37.5" y="-37.5" style=""><svg xmlns="http://www.w3.org/2000/svg" viewBox="0 0 75 75"><g id="Working"><path id="Purple_Light_BG" data-name="Purple Light BG" fill="#693cc5" d="M0 0h75v75H0z"></path><g id="Product_Icon" data-name="Product Icon" fill="#fff"><path d="M22.5 27.25h-9a1 1 0 0 0-1 1v32a1 1 0 0 0 1 1h9a1 1 0 0 0 1-1v-32a1 1 0 0 0-1-1zm-1 32h-7v-30h7zM36.5 54.67v5.58a1 1 0 0 1-1 1h-9a1 1 0 0 1-1-1V43a14.74 14.74 0 0 0 2 5.24v11h7V54a13.55 13.55 0 0 0 2 .67zM36.5 22.25v3.54a13.55 13.55 0 0 0-2 .71v-3.25h-7v9a14.74 14.74 0 0 0-2 5.24V22.25a1 1 0 0 1 1-1h9a1 1 0 0 1 1 1zM47.5 55.47v3.78h-7v-4a14.71 14.71 0 0 1-2-.13v5.13a1 1 0 0 0 1 1h9a1 1 0 0 0 1-1v-2.78zm1-42.22h-9a1 1 0 0 0-1 1v11.13a14.42 14.42 0 0 1 2-.13v-10h7V27a14.44 14.44 0 0 1 2 1.28v-14a1 1 0 0 0-1-1.03zM61.5 18.25h-9a1 1 0 0 0-1 1v10.84a14.58 14.58 0 0 1 2 2.74V20.25h7V51l2 2V19.25a1 1 0 0 0-1-1z"></path><path d="M61.29 54.65l-9-9a13 13 0 1 0-5.74 6.07l8.85 8.84a4.16 4.16 0 0 0 5.89-5.88zM29.5 40.23a11 11 0 1 1 11 11 11 11 0 0 1-11-11zm30.37 18.89a2.17 2.17 0 0 1-3.06 0l-8.52-8.52a13.21 13.21 0 0 0 3-3.17l8.6 8.64a2.16 2.16 0 0 1-.02 3.05z"></path><path d="M36.07 45a6.46 6.46 0 1 1 7.69-10.38l-1.19 1.61a4.46 4.46 0 1 0-5.31 7.17z"></path></g></g></svg></svg></g></svg></g></g><g opacity="1"><g id="fc409b74-e6e7-4b9e-b5ac-6d0746d0ddd0" transform="translate(0 0)"><svg x="336" y="583" overflow="visible"><g transform="scale(1.2074767078498865) matrix(0.707 0.409 -0.707 0.409 0 0)"><circle cx="0" cy="0" fill="transparent" r="37.5"></circle><svg width="75" height="75" x="-37.5" y="-37.5" style=""><svg xmlns="http://www.w3.org/2000/svg" viewBox="0 0 75 75"><defs><linearGradient id="BlueGradient" x1="-1463.7" y1="558.32" x2="-1463.7" y2="708.32" gradientTransform="rotate(-135 -836.5 24.5)" gradientUnits="userSpaceOnUse"><stop offset="0" stop-color="#2e27ad"></stop><stop offset="1" stop-color="#527fff"></stop></linearGradient></defs><g id="Reference"><path id="Blue_Gradient" data-name="Blue Gradient" fill="url(#BlueGradient)" d="M0 0h75v75H0z"></path><g id="Icon_Test" data-name="Icon Test" fill="#fff"><path d="M54.64 45.42l-.28-2c2.8-.39 6.14-2 6.14-7.33 0-5-3.8-6.84-7-7.48a1 1 0 0 1-.8-.92c-.22-3.91-2.49-5.3-4.37-5.3a4.07 4.07 0 0 0-3.25 1.64 1 1 0 0 1-.95.39 1 1 0 0 1-.79-.64 13.27 13.27 0 0 0-3.12-5A11.16 11.16 0 0 0 21 26.33a12.08 12.08 0 0 0 .08 1.35 1 1 0 0 1-.75 1.09C18.16 29.31 14.5 31 14.5 36v.55c.16 3 2.73 5.69 6.24 6.62l-.52 1.94c-4.33-1.16-7.51-4.64-7.72-8.46V36a8.92 8.92 0 0 1 6.53-9v-.74a13.18 13.18 0 0 1 22.59-8.86 14.92 14.92 0 0 1 3 4.29 6 6 0 0 1 3.71-1.28c2.81 0 5.76 2 6.3 6.42 5.08 1.26 7.87 4.53 7.87 9.28 0 5.22-2.87 8.61-7.86 9.31z"></path><path d="M37.5 31.54a15 15 0 1 0 15 15 15 15 0 0 0-15-15zm0 28a13 13 0 1 1 13-13 13 13 0 0 1-13 13z"></path><path d="M45.5 51.49v2h-16v-2h2v-5.95h2v5.95h3v-8.95h2v8.95h3V39.54h2v11.95h2z"></path></g></g></svg></svg></g></svg></g></g><g opacity="1"><g id="62f84432-0ae6-4af4-8645-7b6583f80505" transform="translate(0 0)"><svg x="192" y="500" overflow="visible"><g transform="scale(1.2074767078498865) matrix(0.707 0.409 -0.707 0.409 0 0)"><circle cx="0" cy="0" fill="transparent" r="37.5"></circle><svg width="75" height="75" x="-37.5" y="-37.5" style=""><svg xmlns="http://www.w3.org/2000/svg" viewBox="0 0 75 75"><g id="Reference"><path id="Pink_Light_BG" data-name="Pink Light BG" fill="#cc2264" d="M0 0h75v75H0z"></path><g id="Product_Icon" data-name="Product Icon" fill="#fff"><path d="M31.5 48h-11a6.11 6.11 0 0 1-3.14-.94 10.18 10.18 0 0 1-4.86-8.89A9.09 9.09 0 0 1 19 29v-.78a13.7 13.7 0 0 1 7.82-12.08 13.12 13.12 0 0 1 14.79 2.93 15.05 15.05 0 0 1 3 4.4 5.86 5.86 0 0 1 3.68-1.3c2.72 0 5.78 2.06 6.34 6.58 2.57.61 7.85 2.71 7.85 9.51a9 9 0 0 1-4.73 8.39l-1-1.75a7.08 7.08 0 0 0 3.7-6.64c0-5.88-4.87-7.34-7-7.7a1 1 0 0 1-.65-.42 1 1 0 0 1-.17-.72c-.29-3.63-2.41-5.25-4.4-5.25A4 4 0 0 0 45 25.86a1 1 0 0 1-.95.4 1 1 0 0 1-.79-.66 13.6 13.6 0 0 0-3.14-5.12A11.16 11.16 0 0 0 27.61 18 11.76 11.76 0 0 0 21 28.2a12.34 12.34 0 0 0 .08 1.38 1 1 0 0 1-.81 1.11 7.24 7.24 0 0 0-5.78 7.48 8.13 8.13 0 0 0 3.93 7.2 4 4 0 0 0 2.08.63h11z"></path><path d="M61.39 54l-7.1-7.13A10.61 10.61 0 1 0 49.43 52l7 7a3.52 3.52 0 0 0 2.5 1 3.48 3.48 0 0 0 2.49-1 3.52 3.52 0 0 0-.03-5zM44.6 51.17a8.59 8.59 0 1 1 8.59-8.59 8.59 8.59 0 0 1-8.59 8.59zM60 57.55a1.57 1.57 0 0 1-2.16 0l-6.66-6.66a10.48 10.48 0 0 0 2.12-2.24l6.7 6.74a1.54 1.54 0 0 1 0 2.16z"></path><path d="M47.35 37.93l-1.19 1.61a3.37 3.37 0 0 0-5.34 3.2A3.3 3.3 0 0 0 42.15 45L41 46.56a5.37 5.37 0 0 1 6.39-8.63z"></path></g></g></svg></svg></g></svg></g></g><g opacity="1"><g id="45411a2c-feb9-4b67-84f9-d3a95346f6da" transform="translate(0 0)"><svg x="-448" y="777" overflow="visible"><g transform="scale(0.8944271909999159) matrix(0.707 0.409 -0.707 0.409 0 0)"><circle cx="0" cy="0" fill="#000000" r="23"></circle><svg width="27" height="32" x="-13.5" y="-16" style="fill: rgb(255, 255, 255);"><svg xmlns="http://www.w3.org/2000/svg" width="27" height="32" viewBox="0 0 27 32"><path d="M26.214 6.786c.661.661 1.214 1.982 1.214 2.929v20.571c0 .946-.768 1.714-1.714 1.714h-24A1.715 1.715 0 0 1 0 30.286V1.715C0 .769.768.001 1.714.001h16c.946 0 2.268.554 2.929 1.214zm-7.928-4.357v6.714H25c-.107-.304-.268-.607-.393-.732l-5.589-5.589c-.125-.125-.429-.286-.732-.393zm6.857 27.285V11.428h-7.429A1.715 1.715 0 0 1 16 9.714V2.285H2.286v27.429h22.857zm-16.572-16a.571.571 0 0 1 .804-.107l.911.679c.25.196.304.554.107.804l-3.25 4.339 3.25 4.339a.572.572 0 0 1-.107.804l-.911.679a.572.572 0 0 1-.804-.107l-4.036-5.375a.591.591 0 0 1 0-.679zm14.322 5.375a.591.591 0 0 1 0 .679l-4.036 5.375a.571.571 0 0 1-.804.107l-.911-.679a.571.571 0 0 1-.107-.804l3.25-4.339-3.25-4.339a.572.572 0 0 1 .107-.804l.911-.679a.572.572 0 0 1 .804.107zm-11.072 8.232a.567.567 0 0 1-.464-.661l2.464-14.839a.567.567 0 0 1 .661-.464l1.125.179a.567.567 0 0 1 .464.661l-2.464 14.839a.567.567 0 0 1-.661.464z"></path></svg></svg></g></svg></g></g><g opacity="1"><g id="d5ba1b22-9f11-4253-828f-b518dbc1556a" transform="translate(0 0)"><svg x="-512" y="722" overflow="visible"><g transform="scale(1.2074767078498865) matrix(0.707 0.409 -0.707 0.409 0 0)"><circle cx="0" cy="0" fill="transparent" r="37.5"></circle><svg width="75" height="75" x="-37.5" y="-37.5" style=""><svg xmlns="http://www.w3.org/2000/svg" viewBox="0 0 75 75"><g id="Reference"><path id="Green_Light_BG" data-name="Green Light BG" fill="#3f8624" d="M0 0h75v75H0z"></path><g id="Product_Icon" data-name="Product Icon"><path d="M61.43 40.06c-.29-1.57-2.07-2.68-3.29-3.47-.39-.25-1.46-.65-1.55-1a2.36 2.36 0 0 1 .1-.74l1-7.19c.29-2.11.57-4.22.86-6.33.26-1.94-.67-3.24-2.25-4.33-3.22-2.23-7.42-3.13-11.21-3.75a55.85 55.85 0 0 0-14.38-.47 40 40 0 0 0-12.53 3c-2.14 1-4.94 2.56-4.59 5.29 1 8.12 2.18 16.22 3.27 24.33l1.5 11.13a4.13 4.13 0 0 0 2.46 3.33c3.1 1.68 6.94 2.16 10.4 2.48A51.5 51.5 0 0 0 45 61.73c2.88-.53 8.24-1.4 8.7-5 .57-4.46 1.2-8.92 1.8-13.37l.22-1.36c1.63.39 6.28 1.22 5.71-1.94zM36.05 14.5c6 0 12.87.68 18.25 3.64.83.46 2.76 1.49 2.18 2.71S54.1 22.68 53 23.12a30.88 30.88 0 0 1-4.83 1.35 62.29 62.29 0 0 1-21.66.45 26.8 26.8 0 0 1-9.32-2.73c-.72-.41-1.91-1.15-1.58-2.13a3 3 0 0 1 1.18-1.26 20.84 20.84 0 0 1 7.2-2.91 50.35 50.35 0 0 1 12.06-1.39zm15.68 42.15c-.15 1.17-2.08 1.75-3 2.08a29.6 29.6 0 0 1-5.88 1.32 50.72 50.72 0 0 1-13.37 0 22.24 22.24 0 0 1-8-2.17 2 2 0 0 1-1.2-1.73c-1-7.93-2.14-15.86-3.21-23.79l-1.16-8.6a23.26 23.26 0 0 0 7.3 2.56 59.62 59.62 0 0 0 8.31 1.09 64.8 64.8 0 0 0 16.39-.91 24.27 24.27 0 0 0 8.21-2.74L54 39.46a120.43 120.43 0 0 1-14.82-6 4.27 4.27 0 0 1-.61-.29c-.27-.2-.2-.1-.33-.41-.25-.57-.31-1-.84-1.47a2.25 2.25 0 1 0-1.24 4 4.12 4.12 0 0 0 1-.3c.39-.12.39-.1.8.09a126.72 126.72 0 0 0 15 6.16c.77.25.76 0 .76.64a11.49 11.49 0 0 1-.19 1.45l-.64 4.77zM36.3 33c0 .27-.38.24-.48.07s.48-.45.48-.07zM56 40l.3-2.21c1 .57 2.7 1.43 3.15 2.57-.98.4-2.53-.13-3.45-.36z" fill="#fff"></path></g></g></svg></svg></g></svg></g></g><g opacity="1"><g id="e6aeb388-bb1e-4af5-90ec-ccf4f578b97f" transform="translate(0 0)"><svg x="-336" y="435" overflow="visible"><g transform="scale(0.8944271909999159) matrix(0.707 0.409 -0.707 0.409 0 0)"><circle cx="0" cy="0" fill="#000000" r="23"></circle><svg width="32" height="32" x="-16" y="-16" style="fill: rgb(255, 255, 255);"><svg xmlns="http://www.w3.org/2000/svg" width="32" height="32" viewBox="0 0 32 32"><path d="M29.714 26.857V13.143a9.675 9.675 0 0 1-1.232 1.179c-2.554 1.964-5.125 3.964-7.607 6.036-1.339 1.125-3 2.5-4.857 2.5h-.036c-1.857 0-3.518-1.375-4.857-2.5-2.482-2.071-5.054-4.071-7.607-6.036a9.606 9.606 0 0 1-1.232-1.179v13.714c0 .304.268.571.571.571h26.286a.587.587 0 0 0 .571-.571zm0-18.768c0-.446.107-1.232-.571-1.232H2.857a.587.587 0 0 0-.571.571c0 2.036 1.018 3.804 2.625 5.071 2.393 1.875 4.786 3.768 7.161 5.661.946.768 2.661 2.411 3.911 2.411h.036c1.25 0 2.964-1.643 3.911-2.411 2.375-1.893 4.768-3.786 7.161-5.661 1.161-.911 2.625-2.893 2.625-4.411zM32 7.429v19.429a2.866 2.866 0 0 1-2.857 2.857H2.857A2.866 2.866 0 0 1 0 26.858V7.429a2.866 2.866 0 0 1 2.857-2.857h26.286A2.866 2.866 0 0 1 32 7.429z"></path></svg></svg></g></svg></g></g><g opacity="1"><g id="a24c07d8-85e1-43ce-9e49-010f690ce659" transform="translate(0 0)"><svg x="-144" y="453" overflow="visible"><g transform="scale(0.8944271909999159) matrix(0.707 0.409 -0.707 0.409 0 0)"><circle cx="0" cy="0" fill="#000000" r="23"></circle><svg width="32" height="32" x="-16" y="-16" style="fill: rgb(255, 255, 255);"><svg xmlns="http://www.w3.org/2000/svg" width="32" height="32" viewBox="0 0 32 32"><path d="M26.321 16.304l.696.911a.565.565 0 0 1-.089.786c-1.786 1.393-5.893 4.554-6.071 4.696-1.268 1.036-2.982 2.464-4.839 2.446h-.036c-1.857 0-3.571-1.411-4.839-2.446-.196-.161-4.161-3.214-5.911-4.571a.55.55 0 0 1-.107-.786l.661-.929a.562.562 0 0 1 .821-.107c1.214.946 2.929 2.268 5.464 4.214.893.679 2.661 2.339 3.911 2.339h.036c1.25 0 3.018-1.661 3.911-2.339 2.625-2.018 4.375-3.357 5.589-4.321a.572.572 0 0 1 .804.107zm3.393 12.839V12.572c-1.786-1.661-1.518-1.518-9.786-7.911-.893-.696-2.661-2.375-3.911-2.375h-.036c-1.25 0-3.018 1.679-3.911 2.375-8.268 6.393-8 6.25-9.786 7.911v16.571c0 .304.268.571.571.571h26.286a.587.587 0 0 0 .571-.571zM32 12.571v16.571a2.866 2.866 0 0 1-2.857 2.857H2.857A2.866 2.866 0 0 1 0 29.142V12.571c0-.643.268-1.25.732-1.679 3.661-3.393 7.875-6.339 10.411-8.429 1.25-1.036 2.982-2.464 4.839-2.464h.036c1.857 0 3.589 1.429 4.839 2.464 2.357 1.946 6.839 5.107 10.411 8.429.464.429.732 1.036.732 1.679z"></path></svg></svg></g></svg></g></g><g opacity="1"><g id="089b9ac7-f80f-45db-8540-6ae1eebf049f" transform="translate(0 0)"><svg x="304" y="250" overflow="visible"><g transform="scale(1.7469281074217107) matrix(0.707 0.409 -0.707 0.409 0 0)"><circle cx="0" cy="0" fill="#000000" r="23"></circle><svg width="23" height="32" x="-11.5" y="-16" style="fill: rgb(255, 255, 255);"><svg xmlns="http://www.w3.org/2000/svg" width="23" height="32" viewBox="0 0 23 32"><path d="M22.857 24.982c0 2.607-1.714 4.732-3.804 4.732H3.803c-2.089 0-3.804-2.125-3.804-4.732 0-4.696 1.161-10.125 5.839-10.125a7.972 7.972 0 0 0 11.178 0c4.679 0 5.839 5.429 5.839 10.125zM18.286 9.143c0 3.786-3.071 6.857-6.857 6.857s-6.857-3.071-6.857-6.857 3.071-6.857 6.857-6.857 6.857 3.071 6.857 6.857z"></path></svg></svg></g></svg></g></g><g opacity="1"><g id="ca072d8f-22f8-4ad3-bbd9-5628b6dd3a43" transform="translate(0 0)"><svg x="304" y="287" overflow="visible"><g transform="scale(0.8944271909999159) matrix(0.707 0.409 -0.707 0.409 0 0)"><circle cx="0" cy="0" fill="#000000" r="24"></circle><svg width="34" height="32" x="-17" y="-16" style="fill: rgb(255, 255, 255);"><svg xmlns="http://www.w3.org/2000/svg" width="34" height="32" viewBox="0 0 34 32"><path d="M7.429 22.857A2.866 2.866 0 0 1 4.572 20V7.429a2.866 2.866 0 0 1 2.857-2.857h19.429a2.866 2.866 0 0 1 2.857 2.857V20a2.866 2.866 0 0 1-2.857 2.857H7.429zM6.857 7.429V20c0 .304.268.571.571.571h19.429a.587.587 0 0 0 .571-.571V7.429a.587.587 0 0 0-.571-.571H7.428a.587.587 0 0 0-.571.571zM31.429 24h2.857v1.714c0 .946-1.286 1.714-2.857 1.714H2.858c-1.571 0-2.857-.768-2.857-1.714V24H31.43zm-12.858 1.714c.161 0 .286-.125.286-.286s-.125-.286-.286-.286h-2.857c-.161 0-.286.125-.286.286s.125.286.286.286h2.857z"></path></svg></svg></g></svg></g></g><g opacity="1"><g id="9501d3cd-4470-4a14-94ae-6df3e1fa7ddd" transform="translate(0 0)"><svg x="160" y="629" overflow="visible"><g transform="scale(0.8944271909999159) matrix(0.707 0.409 -0.707 0.409 0 0)"><circle cx="0" cy="0" fill="#000000" r="24"></circle><svg width="34" height="32" x="-17" y="-16" style="fill: rgb(255, 255, 255);"><svg xmlns="http://www.w3.org/2000/svg" width="34" height="32" viewBox="0 0 34 32"><path d="M16 16c0-2.518-2.054-4.571-4.571-4.571S6.858 13.483 6.858 16s2.054 4.571 4.571 4.571S16 18.517 16 16zm13.714 9.143c0-1.25-1.036-2.286-2.286-2.286s-2.286 1.036-2.286 2.286a2.29 2.29 0 0 0 2.286 2.286 2.29 2.29 0 0 0 2.286-2.286zm0-18.286c0-1.25-1.036-2.286-2.286-2.286s-2.286 1.036-2.286 2.286a2.29 2.29 0 0 0 2.286 2.286 2.29 2.29 0 0 0 2.286-2.286zm-6.857 7.518v3.304c0 .232-.179.5-.411.536l-2.768.429a8.133 8.133 0 0 1-.571 1.357c.5.714 1.036 1.375 1.607 2.054a.619.619 0 0 1 .125.357c0 .125-.036.25-.125.339-.357.482-2.357 2.661-2.875 2.661a.676.676 0 0 1-.375-.125L15.41 23.68a7.648 7.648 0 0 1-1.375.554c-.089.911-.179 1.893-.411 2.768a.57.57 0 0 1-.536.429H9.767c-.25 0-.5-.196-.536-.446l-.411-2.732a8.732 8.732 0 0 1-1.339-.554l-2.107 1.589a.515.515 0 0 1-.357.125.577.577 0 0 1-.375-.143c-.464-.429-2.571-2.339-2.571-2.857a.61.61 0 0 1 .125-.339c.518-.679 1.054-1.339 1.571-2.036a9.515 9.515 0 0 1-.625-1.464l-2.714-.429a.52.52 0 0 1-.429-.518v-3.304c0-.232.179-.5.411-.536l2.768-.429c.143-.464.339-.911.571-1.357a29.272 29.272 0 0 0-1.607-2.054c-.071-.107-.125-.232-.125-.357s.036-.25.125-.357c.357-.482 2.357-2.643 2.875-2.643.143 0 .268.054.375.125l2.054 1.607a9.216 9.216 0 0 1 1.375-.571c.089-.893.179-1.875.411-2.75a.57.57 0 0 1 .536-.429h3.321c.25 0 .5.196.536.446l.411 2.732c.464.143.911.339 1.339.554l2.107-1.589a.547.547 0 0 1 .357-.125c.143 0 .268.054.375.143.464.429 2.571 2.357 2.571 2.857a.61.61 0 0 1-.125.339c-.518.696-1.054 1.339-1.554 2.036.232.482.446.964.607 1.464l2.714.411c.25.054.429.286.429.536zm11.429 9.518v2.5c0 .268-2.304.518-2.661.554a4.332 4.332 0 0 1-.536.929c.161.357.911 2.143.911 2.464 0 .054-.018.089-.071.125-.214.125-2.125 1.268-2.214 1.268-.232 0-1.571-1.786-1.75-2.054-.179.018-.357.036-.536.036s-.357-.018-.536-.036c-.179.268-1.518 2.054-1.75 2.054-.089 0-2-1.143-2.214-1.268a.153.153 0 0 1-.071-.125c0-.304.75-2.107.911-2.464a4.35 4.35 0 0 1-.536-.929c-.357-.036-2.661-.286-2.661-.554v-2.5c0-.268 2.304-.518 2.661-.554.143-.321.321-.643.536-.929-.161-.357-.911-2.161-.911-2.464 0-.036.018-.089.071-.125.214-.107 2.125-1.25 2.214-1.25.232 0 1.571 1.768 1.75 2.036.179-.018.357-.036.536-.036s.357.018.536.036c.5-.696 1.036-1.393 1.643-2l.107-.036c.089 0 2 1.125 2.214 1.25a.153.153 0 0 1 .071.125c0 .321-.75 2.107-.911 2.464.214.286.393.607.536.929.357.036 2.661.286 2.661.554zm0-18.286v2.5c0 .268-2.304.518-2.661.554a4.332 4.332 0 0 1-.536.929c.161.357.911 2.143.911 2.464 0 .054-.018.089-.071.125-.214.125-2.125 1.268-2.214 1.268-.232 0-1.571-1.786-1.75-2.054-.179.018-.357.036-.536.036s-.357-.018-.536-.036c-.179.268-1.518 2.054-1.75 2.054-.089 0-2-1.143-2.214-1.268a.153.153 0 0 1-.071-.125c0-.304.75-2.107.911-2.464a4.35 4.35 0 0 1-.536-.929c-.357-.036-2.661-.286-2.661-.554v-2.5c0-.268 2.304-.518 2.661-.554.143-.321.321-.643.536-.929-.161-.357-.911-2.161-.911-2.464 0-.036.018-.089.071-.125.214-.107 2.125-1.25 2.214-1.25.232 0 1.571 1.768 1.75 2.036.179-.018.357-.036.536-.036s.357.018.536.036c.5-.696 1.036-1.393 1.643-2l.107-.036c.089 0 2 1.125 2.214 1.25A.153.153 0 0 1 32 1.66c0 .321-.75 2.107-.911 2.464.214.286.393.607.536.929.357.036 2.661.286 2.661.554z"></path></svg></svg></g></svg></g></g></g><g pointer-events="auto"><g opacity="1"><g id="cb956b51-a5a7-4db5-8154-87a52029a1a5" transform="translate(0 0)"><svg x="-448" y="777" overflow="visible"><text stroke="#ffffff" stroke-width="4" font-family="Open Sans" y="30.799999999999997" font-size="20pt" fill="#000000" font-weight="bold" transform="matrix(0.707 0.409 -0.707 0.409 0 0)" xml:space="preserve"><tspan x="8" dy="0">Code Zip Artifact</tspan></text><text font-family="Open Sans" y="30.799999999999997" font-size="20pt" fill="#000000" font-weight="bold" transform="matrix(0.707 0.409 -0.707 0.409 0 0)" xml:space="preserve"><tspan x="8" dy="0">Code Zip Artifact</tspan></text></svg></g></g><g opacity="1"><g id="2bd2730f-1daa-4246-b2be-9f42e7546a3d" transform="translate(0 0)"><svg x="-16" y="583" overflow="visible"><text stroke="#ffffff" stroke-width="4" font-family="Open Sans" y="30.799999999999997" font-size="20pt" fill="#000000" font-weight="bold" transform="matrix(0.707 -0.409 0.707 0.409 0 0)" xml:space="preserve"><tspan x="8" dy="0">Send logs</tspan></text><text font-family="Open Sans" y="30.799999999999997" font-size="20pt" fill="#000000" font-weight="bold" transform="matrix(0.707 -0.409 0.707 0.409 0 0)" xml:space="preserve"><tspan x="8" dy="0">Send logs</tspan></text></svg></g></g><g opacity="1"><g id="210a79a2-d28c-4bea-8539-785c4cc37a2d" transform="translate(0 0)"><svg x="-544" y="629" overflow="visible"><text stroke="#ffffff" stroke-width="4" font-family="Open Sans" y="30.799999999999997" font-size="20pt" fill="#f5b720" font-weight="bold" transform="matrix(0.707 0.409 -0.707 0.409 0 0)" xml:space="preserve"><tspan x="8" dy="0">Amazon </tspan><tspan x="8" dy="1.1em">S3</tspan></text><text font-family="Open Sans" y="30.799999999999997" font-size="20pt" fill="#f5b720" font-weight="bold" transform="matrix(0.707 0.409 -0.707 0.409 0 0)" xml:space="preserve"><tspan x="8" dy="0">Amazon </tspan><tspan x="8" dy="1.1em">S3</tspan></text></svg></g></g><g opacity="1"><g id="6ccdd51f-da3d-428a-ac8d-499c410fa54f" transform="translate(0 0)"><svg x="-480" y="315" overflow="visible"><text stroke="#ffffff" stroke-width="4" font-family="Open Sans" y="30.799999999999997" font-size="20pt" fill="#f5b720" font-weight="bold" transform="matrix(0.707 0.409 -0.707 0.409 0 0)" xml:space="preserve"><tspan x="8" dy="0">Amazon</tspan><tspan x="8" dy="1.1em">SNS</tspan></text><text font-family="Open Sans" y="30.799999999999997" font-size="20pt" fill="#f5b720" font-weight="bold" transform="matrix(0.707 0.409 -0.707 0.409 0 0)" xml:space="preserve"><tspan x="8" dy="0">Amazon</tspan><tspan x="8" dy="1.1em">SNS</tspan></text></svg></g></g><g opacity="1"><g id="3de9c1be-fa87-40f7-8549-44dc36308192" transform="translate(0 0)"><svg x="64" y="333" overflow="visible"><text stroke="#ffffff" stroke-width="4" font-family="Open Sans" y="30.799999999999997" font-size="20pt" fill="#f5b720" font-weight="bold" transform="matrix(0.707 0.409 -0.707 0.409 0 0)" xml:space="preserve"><tspan x="8" dy="0">Amazon</tspan><tspan x="8" dy="1.1em">ElasticSearch</tspan></text><text font-family="Open Sans" y="30.799999999999997" font-size="20pt" fill="#f5b720" font-weight="bold" transform="matrix(0.707 0.409 -0.707 0.409 0 0)" xml:space="preserve"><tspan x="8" dy="0">Amazon</tspan><tspan x="8" dy="1.1em">ElasticSearch</tspan></text></svg></g></g><g opacity="1"><g id="66d75814-b3ba-4f60-ad6d-2a2c8a376142" transform="translate(0 0)"><svg x="224" y="426" overflow="visible"><text stroke="#ffffff" stroke-width="4" font-family="Open Sans" y="30.799999999999997" font-size="20pt" fill="#f5b720" font-weight="bold" transform="matrix(0.707 0.409 -0.707 0.409 0 0)" xml:space="preserve"><tspan x="8" dy="0">Amazon</tspan><tspan x="8" dy="1.1em">CloudWatch</tspan></text><text font-family="Open Sans" y="30.799999999999997" font-size="20pt" fill="#f5b720" font-weight="bold" transform="matrix(0.707 0.409 -0.707 0.409 0 0)" xml:space="preserve"><tspan x="8" dy="0">Amazon</tspan><tspan x="8" dy="1.1em">CloudWatch</tspan></text></svg></g></g><g opacity="1"><g id="84585c4c-47b1-4549-a6a5-e96ac82a15fb" transform="translate(0 0)"><svg x="384" y="518" overflow="visible"><text stroke="#ffffff" stroke-width="4" font-family="Open Sans" y="30.799999999999997" font-size="20pt" fill="#f5b720" font-weight="bold" transform="matrix(0.707 0.409 -0.707 0.409 0 0)" xml:space="preserve"><tspan x="8" dy="0">Amazon</tspan><tspan x="8" dy="1.1em">X-Ray</tspan></text><text font-family="Open Sans" y="30.799999999999997" font-size="20pt" fill="#f5b720" font-weight="bold" transform="matrix(0.707 0.409 -0.707 0.409 0 0)" xml:space="preserve"><tspan x="8" dy="0">Amazon</tspan><tspan x="8" dy="1.1em">X-Ray</tspan></text></svg></g></g><g opacity="1"><g id="8d83c794-bd09-4070-aabb-ec84214361fc" transform="translate(0 0)"><svg x="-208" y="509" overflow="visible"><text stroke="#ffffff" stroke-width="4" font-family="Open Sans" y="30.799999999999997" font-size="20pt" fill="#000000" font-weight="bold" transform="matrix(0.707 -0.409 0.707 0.409 0 0)" xml:space="preserve"><tspan x="8" dy="0">Index messages</tspan></text><text font-family="Open Sans" y="30.799999999999997" font-size="20pt" fill="#000000" font-weight="bold" transform="matrix(0.707 -0.409 0.707 0.409 0 0)" xml:space="preserve"><tspan x="8" dy="0">Index messages</tspan></text></svg></g></g><g opacity="1"><g id="75134a9f-5795-4743-b690-cb8d044c24d7" transform="translate(0 0)"><svg x="-512" y="648" overflow="visible"><text stroke="#ffffff" stroke-width="4" font-family="Open Sans" y="30.799999999999997" font-size="20pt" fill="#000000" font-weight="bold" transform="matrix(0.707 -0.409 0.707 0.409 0 0)" xml:space="preserve"><tspan x="8" dy="0">Server code content </tspan><tspan x="8" dy="1.1em">from bucket</tspan></text><text font-family="Open Sans" y="30.799999999999997" font-size="20pt" fill="#000000" font-weight="bold" transform="matrix(0.707 -0.409 0.707 0.409 0 0)" xml:space="preserve"><tspan x="8" dy="0">Server code content </tspan><tspan x="8" dy="1.1em">from bucket</tspan></text></svg></g></g><g opacity="1"><g id="45bcebba-31ad-4649-9ba4-40ff62664db1" transform="translate(0 0)"><svg x="64" y="315" overflow="visible"><text stroke="#ffffff" stroke-width="4" font-family="Open Sans" y="30.799999999999997" font-size="20pt" fill="#000000" font-weight="bold" transform="matrix(0.707 -0.409 0.707 0.409 0 0)" xml:space="preserve"><tspan x="8" dy="0">Visualize via </tspan><tspan x="8" dy="1.1em">Kibana UI</tspan></text><text font-family="Open Sans" y="30.799999999999997" font-size="20pt" fill="#000000" font-weight="bold" transform="matrix(0.707 -0.409 0.707 0.409 0 0)" xml:space="preserve"><tspan x="8" dy="0">Visualize via </tspan><tspan x="8" dy="1.1em">Kibana UI</tspan></text></svg></g></g><g opacity="1"><g id="2da4579b-a4fd-4b8f-b279-07e0f2199f91" transform="translate(0 0)"><svg x="-128" y="518" overflow="visible"><text stroke="#ffffff" stroke-width="4" font-family="Open Sans" y="30.799999999999997" font-size="20pt" fill="#f5b720" font-weight="bold" transform="matrix(0.707 0.409 -0.707 0.409 0 0)" xml:space="preserve"><tspan x="8" dy="0">Amazon</tspan><tspan x="8" dy="1.1em">Lambda</tspan></text><text font-family="Open Sans" y="30.799999999999997" font-size="20pt" fill="#f5b720" font-weight="bold" transform="matrix(0.707 0.409 -0.707 0.409 0 0)" xml:space="preserve"><tspan x="8" dy="0">Amazon</tspan><tspan x="8" dy="1.1em">Lambda</tspan></text></svg></g></g><g opacity="1"><g id="327a4535-1447-4325-a552-8d9a61f6ef4e" transform="translate(0 0)"><svg x="80" y="694" overflow="visible"><text stroke="#ffffff" stroke-width="4" font-family="Open Sans" y="30.799999999999997" font-size="20pt" fill="#000000" font-weight="bold" transform="matrix(0.707 -0.409 0.707 0.409 0 0)" xml:space="preserve"><tspan x="8" dy="0">Trace for analysis</tspan></text><text font-family="Open Sans" y="30.799999999999997" font-size="20pt" fill="#000000" font-weight="bold" transform="matrix(0.707 -0.409 0.707 0.409 0 0)" xml:space="preserve"><tspan x="8" dy="0">Trace for analysis</tspan></text></svg></g></g></g><g></g></g></svg>